<svg xmlns="http://www.w3.org/2000/svg" width="122" height="125" fill="none"><path fill="url(#a)" d="M0 0h82.683v78.365H0z" transform="matrix(.99991 .01309 -.2932 .95605 32.713 88.603)"/><path fill="#192850" d="m37.078 74.362 82.676 1.083-3.861 12.59-82.676-1.082z"/><path fill="url(#b)" d="M0 0h39.938v2.375H0z" transform="matrix(.99991 .01309 -.2932 .95605 73.969 118.365)"/><path fill="#D9D9D9" d="m50.031 106.655 25.688.336-.696 2.27-25.688-.335z"/><path fill="url(#c)" d="M0 0h25.69v2.375H0z" transform="matrix(.99991 .01309 -.2932 .95605 86.883 122.887)"/><circle cx="3.562" cy="3.562" r="3.562" fill="#667489" transform="matrix(.99991 .01309 -.2932 .95605 57.51 77.327)"/><path fill="#fff" d="m104.528 55.095-.933-.874 1.707-.85a.184.184 0 0 0 .044-.03.102.102 0 0 0 .026-.035.063.063 0 0 0 .005-.035.055.055 0 0 0-.017-.03l-.653-.612a.13.13 0 0 0-.087-.028.252.252 0 0 0-.111.026l-1.707.85-.933-.873c-.037-.035-.13-.036-.198-.002l-1.196.596a.147.147 0 0 0-.07.064.055.055 0 0 0 .012.065l.933.874-1.707.85a.146.146 0 0 0-.07.065c-.011.024-.007.048.012.065l.653.612a.096.096 0 0 0 .037.02.171.171 0 0 0 .05.008.247.247 0 0 0 .111-.026l1.707-.85.933.874c.02.018.051.027.087.027a.249.249 0 0 0 .111-.025l1.196-.596a.147.147 0 0 0 .07-.065c.011-.024.007-.047-.012-.065Z"/><g clip-path="url(#d)"><path fill="url(#e)" stroke="url(#f)" stroke-width=".295" d="M44.979 13.446 48.327 2.53l62.116.813 8.07 11.067-30.503 99.458-13.359-.175-10.189 7.43-3.147 10.262-52.296-.684-24.695-33.865L8.029 19.539l8.86-6.46 28.09.367Z"/><path fill="#095B79" d="M5.23 109.771h.517l-.155.493h-.517zM24.89 109.772h.518l-.156.493h-.517zM44.549 109.771h.517l-.156.493h-.517zM64.21 109.771h.518l-.156.493h-.517zM83.871 109.771h.517l-.156.493h-.517zM10.219 93.985h.517l-.156.493h-.517zM29.877 93.985h.517l-.156.493h-.517zM49.539 93.985h.517l-.156.493h-.517zM69.2 93.985h.516l-.156.493h-.517zM88.861 93.985h.517l-.155.493h-.517z"/></g><path fill="url(#g)" d="m-15.623 125.657 14.463.19-10.107-13.861-10.108-13.861-4.241 13.828 9.993 13.704Z"/><path fill="url(#h)" d="M0 0h44.904v2.375H0z" transform="matrix(.99991 .01309 -.2932 .95605 52.69 97.986)"/><path fill="url(#i)" d="M0 0h39.938v2.375H0z" transform="matrix(.99991 .01309 -.2932 .95605 51.357 102.321)"/><g filter="url(#j)"><path fill="#071322" d="M-.313 14.916C.879 11.14 5.055 8.08 9.013 8.08h43c3.223 0 5.049 2.49 4.078 5.564l-2.56 8.105H4.695c-3.958 0-6.2-3.06-5.008-6.834Z"/><path stroke="url(#k)" stroke-width=".292" d="M-.167 14.916C1 11.218 5.09 8.22 8.969 8.22H51.97c3.142 0 4.922 2.429 3.975 5.425L53.43 21.61H4.739c-3.878 0-6.074-2.997-4.906-6.695Z"/><g filter="url(#l)"><path fill="#D7F9FF" d="M7.466 14.924h1.269l-.118.372H7.348l.118-.372Zm-.293 1.043h1.44l-.12.38H6.58l.769-2.435h1.863l-.12.38H7.703l-.53 1.675Zm4.013.38.118-.376v-.08l.208-.658c.04-.127.031-.226-.027-.295-.058-.072-.168-.108-.33-.108a1.274 1.274 0 0 0-.65.184l-.079-.316a1.52 1.52 0 0 1 .426-.17c.159-.04.316-.06.471-.06.282 0 .48.065.591.195.116.128.13.326.046.595l-.344 1.088h-.43Zm-.62.023a.822.822 0 0 1-.362-.07.392.392 0 0 1-.192-.197.44.44 0 0 1 .003-.289.737.737 0 0 1 .166-.282.825.825 0 0 1 .322-.198c.134-.048.3-.073.497-.073h.565l-.091.289h-.533c-.155 0-.268.024-.336.073a.328.328 0 0 0-.136.174c-.024.079-.011.141.04.188.05.046.134.069.251.069.112 0 .22-.024.322-.073a.66.66 0 0 0 .262-.216l-.006.261a.772.772 0 0 1-.317.254c-.131.06-.283.09-.456.09Zm1.635-.024.586-1.857h.456l-.586 1.857H12.2Zm.59-2.11.643-.477h.536l-.785.476h-.394Zm.178 2.635.454-.768-.02.257c-.084 0-.148-.024-.191-.073-.04-.051-.046-.12-.02-.205a.393.393 0 0 1 .15-.209.403.403 0 0 1 .237-.08c.085 0 .147.027.186.08.04.054.045.123.018.209a.557.557 0 0 1-.085.167c-.02.035-.052.079-.093.132l-.34.49h-.296Zm3.256-.5a.732.732 0 0 1-.401-.105.496.496 0 0 1-.211-.313c-.031-.141-.012-.32.056-.535.069-.218.162-.397.278-.536a1.153 1.153 0 0 1 .879-.414c.192 0 .348.04.47.119a.563.563 0 0 1 .245.33c.043.141.034.308-.027.5-.06.193-.158.361-.29.505-.13.141-.282.251-.455.33-.17.079-.352.118-.544.118Zm-1.285.65.8-2.532h.434l-.139.438-.17.494-.12.494-.35 1.106h-.455Zm1.351-1.023c.11 0 .214-.023.314-.07a.837.837 0 0 0 .446-.511.546.546 0 0 0 .021-.309.33.33 0 0 0-.144-.202.482.482 0 0 0-.27-.069.761.761 0 0 0-.317.07.814.814 0 0 0-.272.201.818.818 0 0 0-.174.31.557.557 0 0 0-.021.31.329.329 0 0 0 .144.2.5.5 0 0 0 .273.07Zm1.362.348.587-1.857h.434l-.162.511-.004-.15a.948.948 0 0 1 .364-.284c.147-.065.314-.098.5-.098l-.13.414a.212.212 0 0 0-.052-.007.754.754 0 0 0-.508.143.804.804 0 0 0-.289.427l-.284.901h-.456Zm2.403.024c-.216 0-.393-.04-.53-.121a.602.602 0 0 1-.268-.341.834.834 0 0 1 .024-.49 1.29 1.29 0 0 1 .282-.49c.133-.144.288-.257.464-.338a1.34 1.34 0 0 1 .56-.122c.19 0 .346.04.47.119.123.078.204.19.244.333a.895.895 0 0 1-.056.57.692.692 0 0 1-.025.067H19.6l.09-.289h1.383l-.207.09a.473.473 0 0 0 .02-.281.33.33 0 0 0-.141-.191.463.463 0 0 0-.266-.07.743.743 0 0 0-.317.07.787.787 0 0 0-.419.483l-.022.07a.492.492 0 0 0-.013.295c.026.086.08.152.163.198.083.047.187.07.314.07a.954.954 0 0 0 .593-.202l.159.268a1.324 1.324 0 0 1-.403.226 1.447 1.447 0 0 1-.477.076Zm2.247 0a.972.972 0 0 1-.509-.121.606.606 0 0 1-.264-.341.812.812 0 0 1 .02-.49c.058-.186.155-.35.29-.49a1.46 1.46 0 0 1 1.064-.46c.19 0 .344.037.464.112a.47.47 0 0 1 .23.32l-.41.194a.346.346 0 0 0-.154-.194.477.477 0 0 0-.25-.063.794.794 0 0 0-.6.271.818.818 0 0 0-.175.31.564.564 0 0 0-.022.313.328.328 0 0 0 .149.198c.075.046.169.07.28.07a.72.72 0 0 0 .29-.063.858.858 0 0 0 .277-.195l.288.195c-.119.139-.264.247-.434.323a1.303 1.303 0 0 1-.534.111Zm1.215-.024.587-1.857h.455l-.586 1.857h-.456Zm.913-2.163c-.085 0-.148-.025-.187-.076-.038-.051-.045-.113-.022-.184a.4.4 0 0 1 .374-.26c.085-.001.146.023.184.072.042.046.051.105.028.177a.389.389 0 0 1-.141.195.389.389 0 0 1-.236.076Zm.735 2.187c-.163 0-.313-.02-.452-.059a.888.888 0 0 1-.306-.15l.28-.33c.07.054.16.098.271.133.11.034.227.052.348.052a.76.76 0 0 0 .328-.056c.077-.037.126-.087.146-.15.016-.05.006-.089-.03-.114a.362.362 0 0 0-.151-.063 3.295 3.295 0 0 0-.225-.038 3.021 3.021 0 0 1-.245-.045.737.737 0 0 1-.206-.087.312.312 0 0 1-.122-.157c-.023-.064-.018-.15.016-.257a.67.67 0 0 1 .202-.306.997.997 0 0 1 .36-.202 1.49 1.49 0 0 1 .478-.073c.131 0 .26.014.384.042a.812.812 0 0 1 .295.118l-.28.33a.655.655 0 0 0-.246-.107 1.125 1.125 0 0 0-.267-.031.757.757 0 0 0-.33.059c-.077.04-.126.089-.145.15-.017.055-.009.097.026.124.035.028.085.05.15.066.066.017.14.03.221.042.085.01.166.025.245.045.078.021.147.05.206.087a.273.273 0 0 1 .127.15c.024.065.019.15-.014.254a.655.655 0 0 1-.205.302c-.098.086-.22.153-.366.202-.146.046-.31.07-.493.07Zm2.483-.024.118-.375v-.08l.207-.658c.04-.127.032-.226-.026-.295-.058-.072-.168-.108-.331-.108a1.274 1.274 0 0 0-.649.184l-.079-.316a1.52 1.52 0 0 1 .426-.17c.158-.04.315-.06.47-.06.283 0 .48.065.592.195.115.128.13.326.046.595l-.344 1.088h-.43Zm-.62.024a.822.822 0 0 1-.362-.07.392.392 0 0 1-.192-.197.44.44 0 0 1 .003-.289.738.738 0 0 1 .166-.282.825.825 0 0 1 .321-.198c.135-.048.3-.073.497-.073h.566l-.091.289h-.533c-.155 0-.268.024-.337.073a.328.328 0 0 0-.135.174c-.024.079-.011.141.04.188.05.046.134.069.251.069.112 0 .22-.024.322-.073a.661.661 0 0 0 .261-.216l-.005.261a.772.772 0 0 1-.317.254c-.131.06-.283.09-.456.09Zm3.46 0a.87.87 0 0 1-.47-.118.58.58 0 0 1-.245-.334c-.04-.141-.03-.308.03-.5.061-.193.157-.36.286-.501.13-.141.282-.252.455-.33.175-.08.357-.119.544-.119.163 0 .298.035.405.105.107.067.177.17.208.31.031.138.013.317-.056.535-.068.215-.161.394-.279.535a1.127 1.127 0 0 1-.88.417Zm.171-.372c.11 0 .214-.023.314-.07a.814.814 0 0 0 .271-.2.81.81 0 0 0 .178-.31.52.52 0 0 0 .018-.31.329.329 0 0 0-.144-.202.482.482 0 0 0-.27-.069.76.76 0 0 0-.317.07.82.82 0 0 0-.446.511.558.558 0 0 0-.021.31.349.349 0 0 0 .144.2.5.5 0 0 0 .273.07Zm.481.348.139-.438.174-.494.12-.494.364-1.154h.452l-.815 2.58h-.434Zm1.942.024c-.217 0-.393-.04-.53-.121a.601.601 0 0 1-.269-.341.834.834 0 0 1 .024-.49 1.29 1.29 0 0 1 .282-.49c.133-.144.288-.257.464-.338a1.34 1.34 0 0 1 .56-.122c.19 0 .346.04.47.119.123.078.205.19.244.333a.895.895 0 0 1-.056.57.72.72 0 0 1-.024.067h-1.623l.091-.289h1.382l-.207.09a.473.473 0 0 0 .02-.281.33.33 0 0 0-.14-.191.463.463 0 0 0-.267-.07.743.743 0 0 0-.317.07.787.787 0 0 0-.419.483l-.022.07a.492.492 0 0 0-.013.295c.026.086.08.152.164.198.082.047.187.07.313.07a.954.954 0 0 0 .593-.202l.16.268a1.324 1.324 0 0 1-.404.226 1.447 1.447 0 0 1-.476.076Zm3.568-.024.119-.375v-.08l.207-.658c.04-.127.031-.226-.027-.295-.058-.072-.168-.108-.33-.108a1.274 1.274 0 0 0-.65.184l-.078-.316a1.52 1.52 0 0 1 .425-.17c.159-.04.316-.06.471-.06.282 0 .48.065.592.195.115.128.13.326.045.595l-.344 1.088h-.43Zm-.62.024a.822.822 0 0 1-.361-.07.392.392 0 0 1-.193-.197.44.44 0 0 1 .004-.289.738.738 0 0 1 .165-.282.825.825 0 0 1 .322-.198c.134-.048.3-.073.497-.073h.565l-.091.289h-.532c-.156 0-.268.024-.337.073a.329.329 0 0 0-.135.174c-.025.079-.012.141.039.188.05.046.135.069.251.069.112 0 .22-.024.322-.073a.662.662 0 0 0 .262-.216l-.006.261a.773.773 0 0 1-.317.254c-.131.06-.283.09-.455.09Zm1.214.675a.901.901 0 0 1-.232-.028.377.377 0 0 1-.172-.08l.234-.323c.055.049.136.073.243.073a.333.333 0 0 0 .217-.077.437.437 0 0 0 .139-.219l.6-1.902h.456l-.597 1.892a.942.942 0 0 1-.331.483.879.879 0 0 1-.557.181Zm1.352-2.862c-.085 0-.147-.025-.187-.076-.037-.051-.045-.113-.022-.184a.399.399 0 0 1 .374-.26c.085-.001.147.023.185.072.041.046.05.105.028.177a.388.388 0 0 1-.142.195.389.389 0 0 1-.236.076Zm.961 2.187a.862.862 0 0 1-.41-.087.425.425 0 0 1-.21-.27c-.031-.124-.018-.278.04-.463l.336-1.06h.455l-.316 1c-.053.168-.053.293-.002.376.055.081.155.122.3.122a.704.704 0 0 0 .543-.25.859.859 0 0 0 .167-.31l.297-.939h.456l-.587 1.857h-.434l.158-.5.028.152c-.103.12-.229.214-.375.278a1.122 1.122 0 0 1-.446.094Zm2.482 0a.87.87 0 0 1-.47-.118.58.58 0 0 1-.244-.334c-.04-.141-.03-.308.03-.5.061-.193.157-.36.286-.501.13-.141.282-.252.455-.33.175-.08.357-.119.544-.119.163 0 .298.035.405.105.107.067.177.17.208.31.032.138.013.317-.056.535a1.564 1.564 0 0 1-.279.535 1.127 1.127 0 0 1-.88.417Zm.172-.372c.11 0 .214-.023.314-.07a.813.813 0 0 0 .272-.2.81.81 0 0 0 .178-.31.52.52 0 0 0 .017-.31.329.329 0 0 0-.144-.202.482.482 0 0 0-.27-.069.76.76 0 0 0-.317.07.82.82 0 0 0-.446.511.558.558 0 0 0-.021.31.349.349 0 0 0 .144.2.5.5 0 0 0 .273.07Zm.481.348.139-.438.174-.494.12-.494.364-1.154h.452l-.815 2.58h-.434Zm2.234 0 .118-.375v-.08l.208-.658c.04-.127.031-.226-.027-.295-.058-.072-.168-.108-.33-.108a1.275 1.275 0 0 0-.65.184l-.078-.316a1.52 1.52 0 0 1 .425-.17c.159-.04.316-.06.471-.06.282 0 .48.065.591.195.116.128.13.326.046.595l-.344 1.088h-.43Zm-.62.024a.821.821 0 0 1-.361-.07.392.392 0 0 1-.193-.197.44.44 0 0 1 .004-.289.738.738 0 0 1 .165-.282.825.825 0 0 1 .322-.198c.134-.048.3-.073.497-.073h.565l-.091.289h-.533c-.155 0-.267.024-.336.073a.328.328 0 0 0-.135.174c-.025.079-.012.141.039.188.05.046.135.069.251.069.112 0 .22-.024.322-.073a.661.661 0 0 0 .262-.216l-.006.261a.772.772 0 0 1-.317.254c-.131.06-.283.09-.455.09Zm2.237-.83a.731.731 0 0 1 .115-.227c.05-.065.105-.123.168-.174a2.65 2.65 0 0 1 .19-.142c.068-.044.131-.087.19-.129.06-.041.112-.085.156-.132a.403.403 0 0 0 .093-.156c.03-.098.014-.177-.05-.237-.063-.06-.164-.09-.303-.09a.98.98 0 0 0-.372.07 1.029 1.029 0 0 0-.307.198l-.284-.22a1.65 1.65 0 0 1 1.122-.424c.177 0 .325.026.443.077.118.048.2.12.245.215.046.093.048.207.005.341a.78.78 0 0 1-.124.244c-.051.07-.11.13-.175.184-.062.05-.127.1-.195.146a6.861 6.861 0 0 0-.195.132.997.997 0 0 0-.158.143.491.491 0 0 0-.101.18h-.463Zm-.03.83c-.085 0-.147-.026-.186-.08-.036-.053-.043-.117-.02-.19a.368.368 0 0 1 .14-.189.393.393 0 0 1 .237-.08c.085 0 .146.027.182.08.038.051.045.114.021.188a.384.384 0 0 1-.14.192.377.377 0 0 1-.233.08Z"/></g></g><g filter="url(#m)"><path stroke="#2BE3FC" stroke-width="3.771" d="M27.382 56.889c-2.227-3.013-.729-7.898 3.346-10.91 4.076-3.014 9.185-3.014 11.413 0 2.227 3.012.729 7.897-3.346 10.91-4.076 3.013-9.185 3.013-11.413 0ZM62.445 56.889c-2.228-3.013-.73-7.898 3.346-10.91 4.075-3.014 9.185-3.014 11.412 0 2.227 3.012.73 7.897-3.346 10.91-4.075 3.013-9.185 3.013-11.412 0ZM41.738 51.879h19.548"/><path stroke="url(#n)" stroke-linecap="round" stroke-linejoin="round" stroke-width="5.36" d="M98.727 35.102c.17-1.331-.913-5.226-15.643-5.226H33.122c-5.558 0-16.163 2.12-19.407 14.758L8.65 61.153C6.816 67.133 8.158 72.365 17.226 73h52.633l-4.506 14.69 25.284-19.983 3.754-12.238"/><path stroke="url(#o)" stroke-linecap="round" stroke-width="4.977" d="m98.93 35.053-19.615 13.41"/></g><defs><linearGradient id="a" x1="41.342" x2="41.342" y1="0" y2="78.365" gradientUnits="userSpaceOnUse"><stop stop-color="#141D2D"/><stop offset="1" stop-color="#030D1F"/></linearGradient><linearGradient id="b" x1="4.854" x2="6.261" y1="-.062" y2="8.686" gradientUnits="userSpaceOnUse"><stop stop-color="#83F0FF"/><stop offset=".314" stop-color="#2BE3FC"/><stop offset="1" stop-color="#39B8FF"/></linearGradient><linearGradient id="c" x1="3.122" x2="5.235" y1="-.062" y2="8.384" gradientUnits="userSpaceOnUse"><stop stop-color="#83F0FF"/><stop offset=".314" stop-color="#2BE3FC"/><stop offset="1" stop-color="#39B8FF"/></linearGradient><linearGradient id="e" x1="73.147" x2="71.323" y1="-15.589" y2="131.486" gradientUnits="userSpaceOnUse"><stop stop-color="#1A2332"/><stop offset=".495" stop-color="#071031"/><stop offset="1" stop-color="#020108"/></linearGradient><linearGradient id="f" x1="67.624" x2="65.939" y1="2.782" y2="131.445" gradientUnits="userSpaceOnUse"><stop stop-color="#43485F"/><stop offset=".641" stop-color="#141518"/></linearGradient><linearGradient id="g" x1="-17.681" x2="9.456" y1="97.46" y2="116.366" gradientUnits="userSpaceOnUse"><stop stop-color="#83F0FF"/><stop offset=".314" stop-color="#2BE3FC"/><stop offset="1" stop-color="#39B8FF"/></linearGradient><linearGradient id="h" x1="5.457" x2="6.716" y1="-.062" y2="8.733" gradientUnits="userSpaceOnUse"><stop stop-color="#83F0FF"/><stop offset=".314" stop-color="#2BE3FC"/><stop offset="1" stop-color="#39B8FF"/></linearGradient><linearGradient id="i" x1="4.854" x2="6.261" y1="-.062" y2="8.686" gradientUnits="userSpaceOnUse"><stop stop-color="#83F0FF"/><stop offset=".314" stop-color="#2BE3FC"/><stop offset="1" stop-color="#39B8FF"/></linearGradient><linearGradient id="k" x1="29.847" x2="29.847" y1="8.081" y2="21.75" gradientUnits="userSpaceOnUse"><stop stop-color="#9BE4F1"/><stop offset="1" stop-color="#2BDEFD"/></linearGradient><linearGradient id="n" x1="28.886" x2="97.433" y1="28.373" y2="86.212" gradientUnits="userSpaceOnUse"><stop stop-color="#83F0FF"/><stop offset=".314" stop-color="#2BE3FC"/><stop offset="1" stop-color="#39B8FF"/></linearGradient><linearGradient id="o" x1="92.535" x2="75.24" y1="37.053" y2="47.848" gradientUnits="userSpaceOnUse"><stop offset=".021" stop-color="#31D0FD"/><stop offset="1" stop-color="#2BE3FC"/></linearGradient><filter id="j" width="84.253" height="37.602" x="-6.895" y=".829" color-interpolation-filters="sRGB" filterUnits="userSpaceOnUse"><feFlood flood-opacity="0" result="BackgroundImageFix"/><feColorMatrix in="SourceAlpha" result="hardAlpha" values="0 0 0 0 0 0 0 0 0 0 0 0 0 0 0 0 0 0 127 0"/><feOffset dx="7.543" dy="4.715"/><feGaussianBlur stdDeviation="5.983"/><feColorMatrix values="0 0 0 0 0.0745098 0 0 0 0 0.168627 0 0 0 0 0.407843 0 0 0 1 0"/><feBlend in2="BackgroundImageFix" result="effect1_dropShadow_2_175"/><feBlend in="SourceGraphic" in2="effect1_dropShadow_2_175" result="shape"/></filter><filter id="l" width="42.449" height="3.967" x="6.067" y="13.662" color-interpolation-filters="sRGB" filterUnits="userSpaceOnUse"><feFlood flood-opacity="0" result="BackgroundImageFix"/><feColorMatrix in="SourceAlpha" result="hardAlpha" values="0 0 0 0 0 0 0 0 0 0 0 0 0 0 0 0 0 0 127 0"/><feOffset dy=".292"/><feGaussianBlur stdDeviation=".146"/><feComposite in2="hardAlpha" operator="out"/><feColorMatrix values="0 0 0 0 0.0196078 0 0 0 0 0.0980392 0 0 0 0 0.2 0 0 0 0.25 0"/><feBlend in2="BackgroundImageFix" result="effect1_dropShadow_2_175"/><feBlend in="SourceGraphic" in2="effect1_dropShadow_2_175" result="shape"/></filter><filter id="m" width="120.32" height="86.871" x=".411" y="20.062" color-interpolation-filters="sRGB" filterUnits="userSpaceOnUse"><feFlood flood-opacity="0" result="BackgroundImageFix"/><feColorMatrix in="SourceAlpha" result="hardAlpha" values="0 0 0 0 0 0 0 0 0 0 0 0 0 0 0 0 0 0 127 0"/><feOffset dx="7.229" dy="4.715"/><feGaussianBlur stdDeviation="5.983"/><feColorMatrix values="0 0 0 0 0.0748611 0 0 0 0 0.168233 0 0 0 0 0.408333 0 0 0 1 0"/><feBlend in2="BackgroundImageFix" result="effect1_dropShadow_2_175"/><feBlend in="SourceGraphic" in2="effect1_dropShadow_2_175" result="shape"/></filter><clipPath id="d"><path fill="#fff" d="m13.387 2.071 108.474 1.42-39.308 128.171-108.474-1.42z"/></clipPath></defs></svg>